# xmcd
#
# Track frame offsets:
#	150
#	15805
#	42460
#	76034
#	90434
#	125925
#	137920
#	151701
#	166878
#	196054
#	208420
#	225327
#	244407
#	257727
#	271262
#
# Disc length: 3746 seconds
#
# Revision: 2
# Processed by: cddbd v1.5.2PL0 Copyright (c) Steve Scherf et al.
# Submitted via: audiograbber 1.83.01
#
DISCID=bd0ea00f
DTITLE=Various Artist - SimplyFunk - CD2 - Party Party Funk
DYEAR=2007
DGENRE=Funk
TTITLE0=Joe Tex - Ain't Gonna Bump No More (With No Big Fat Woman)
TTITLE1=Fred Wesley - Bop To The Boogie
TTITLE2=Funkadelic - One Nation Under A Groove
TTITLE3=Sir Joe Quaterman and Free Soul - I Got So Much Trouble In My Mind
TTITLE4=Curtis Mayfield - Party Party
TTITLE5=Alvin Cash - Keep On Dancing
TTITLE6=Ripple - A Funky Song
TTITLE7=Ava Cherry - Gimme Your Lovin'
TTITLE8=Funkadelic - Cosmic Slop
TTITLE9=Pee Wee Ellis - Moon Walk
TTITLE10=Solomon Burke - Hold On, I'm Coming
TTITLE11=Aaron Neville - Hercules
TTITLE12=Goliath - Roving Minstrel
TTITLE13=Lee Dorsay - Give It Up
TTITLE14=Jackie Beavers - Singing A Funky Song (For You Baby)
EXTD=
EXTT0=
EXTT1=
EXTT2=
EXTT3=
EXTT4=
EXTT5=
EXTT6=
EXTT7=
EXTT8=
EXTT9=
EXTT10=
EXTT11=
EXTT12=
EXTT13=
EXTT14=
PLAYORDER=
